PathFileType	4	(X/Y/Z)	E:\3-PhD\Data\MocapData\ElaboratedData\012\pre\dynamicElaborations\RunL1\RunL1.trc
DataRate	CameraRate	NumFrames	NumMarkers	Units	OrigDataRate	OrigDataStartFrame	OrigNumFrames
200	200	4	56	mm	200	623	123
Frame#	Time	FHD			LBHD			RBHD			C7			T10			CLAV			LSHO			LUUPA			LMUPA			LDUPA			LLEP			LMEP			LRAD			LUL			LRFIN			RSHO			RUPA1			RMUPA			RDUPA			RLEP			RMEP			RRAD			RUL			RUFIN			LASI			RASI			USACR			LSACR			RSACR			LTHI1			LTHI2			LTHI3			LTHI4			LLFC			LTIB1			LTIB2			LTIB3			LTIB4			LHEE			LMT1			LMT5			LMT2			RTHI			RTHI2			RTHI3			RTHI4			RLFC			RTIB1			RTIB2			RTIB3			RTIB4			RLMAL			RHEE			RMT1			RMT2			RMT5		
		X1	Y1	Z1	X2	Y2	Z2	X3	Y3	Z3	X4	Y4	Z4	X5	Y5	Z5	X6	Y6	Z6	X7	Y7	Z7	X8	Y8	Z8	X9	Y9	Z9	X10	Y10	Z10	X11	Y11	Z11	X12	Y12	Z12	X13	Y13	Z13	X14	Y14	Z14	X15	Y15	Z15	X16	Y16	Z16	X17	Y17	Z17	X18	Y18	Z18	X19	Y19	Z19	X20	Y20	Z20	X21	Y21	Z21	X22	Y22	Z22	X23	Y23	Z23	X24	Y24	Z24	X25	Y25	Z25	X26	Y26	Z26	X27	Y27	Z27	X28	Y28	Z28	X29	Y29	Z29	X30	Y30	Z30	X31	Y31	Z31	X32	Y32	Z32	X33	Y33	Z33	X34	Y34	Z34	X35	Y35	Z35	X36	Y36	Z36	X37	Y37	Z37	X38	Y38	Z38	X39	Y39	Z39	X40	Y40	Z40	X41	Y41	Z41	X42	Y42	Z42	X43	Y43	Z43	X44	Y44	Z44	X45	Y45	Z45	X46	Y46	Z46	X47	Y47	Z47	X48	Y48	Z48	X49	Y49	Z49	X50	Y50	Z50	X51	Y51	Z51	X52	Y52	Z52	X53	Y53	Z53	X54	Y54	Z54	X55	Y55	Z55	X56	Y56	Z56	
623	3.110000	-2872.988023	1695.340368	471.556580	-3018.103835	1745.581167	366.685564	-3017.049515	1723.025951	508.297421	-3138.736313	1580.952537	418.570810	-3317.275056	1273.698706	381.135441	-3039.612622	1448.775918	429.703285	-3021.468003	1577.293440	299.324190	-3034.390043	1397.496850	158.055564	-3008.940646	1361.314999	181.176141	-3041.416206	1330.057179	139.644966	-3032.561615	1245.034266	135.259636	-3115.159055	1227.427396	176.730916	-2933.778195	1265.505127	390.160978	-2893.909980	1203.374481	364.388284	-2869.290031	1278.890609	445.106711	-3089.110795	1509.073951	599.744462	-3323.476506	1485.766493	627.586394	-3333.404507	1438.499978	640.878745	-3384.895612	1453.690866	631.812369	-3447.826286	1419.145250	637.767134	-3451.748980	1388.660889	557.525911	-3378.829101	1151.416492	703.601844	-3454.245857	1146.014388	722.660676	-3379.973700	1065.570732	739.243849	-3246.076739	1005.338952	263.998207	-3219.419095	1027.262656	490.161347	-3376.491931	1147.645449	396.444576	-3404.096400	1117.762125	364.589478	-3397.842376	1119.127903	421.043351	-3471.698464	818.579568	204.157846	-3477.756406	732.735583	209.198033	-3435.957754	712.717076	220.901412	-3529.445308	702.811349	218.512885	-3627.623191	577.401945	236.439511	-3727.010775	413.474434	297.384404	-3790.128230	416.029033	235.916630	-3767.731424	385.893935	260.352143	-3820.972071	329.390058	291.436375	-4009.055284	297.384384	335.381607	-3916.614538	111.526057	339.951619	-3961.308043	118.050518	254.281246	-3915.466806	101.156576	290.207308	-3165.149461	782.734606	533.261351	-3106.412751	767.518730	517.213291	-3077.019111	792.233809	515.546883	-3072.026578	692.859638	500.697071	-3018.783925	596.829011	478.320673	-2993.084970	467.265201	428.381674	-3072.019731	402.153452	466.131604	-3031.803532	390.454924	446.961698	-3033.670038	345.898365	411.895283	-3129.043259	185.745855	402.589938	-3179.303868	146.483013	359.034962	-2959.328550	151.350040	332.241060	-2957.253986	151.768066	375.386810	-2995.351751	118.296635	422.413827	
624	3.115000	-2848.684693	1696.331302	472.476429	-2993.990718	1747.003483	368.010207	-2992.468568	1724.080813	509.737195	-3114.742633	1582.097188	418.832054	-3292.287266	1275.196716	378.979022	-3015.500984	1450.191362	430.329374	-2997.085701	1578.509256	300.243486	-3009.821942	1400.033583	157.639235	-2984.410689	1363.521589	180.272405	-3017.160967	1332.791165	138.471216	-3008.921951	1247.409724	133.560848	-3092.133324	1230.184629	173.999105	-2913.089413	1264.842054	390.161750	-2873.351460	1202.498772	364.229089	-2849.460189	1276.902074	446.516520	-3066.131509	1509.534693	600.150538	-3300.733336	1486.020861	627.469490	-3310.421408	1438.155056	639.596020	-3361.952690	1453.318832	630.318367	-3424.739965	1418.234301	635.242868	-3427.744313	1387.770662	554.970447	-3353.331488	1151.128754	702.363545	-3428.692576	1145.410106	721.372347	-3354.239119	1065.048695	737.960329	-3219.802466	1007.534724	262.596925	-3194.870727	1028.497402	488.811894	-3350.992486	1149.464737	393.998756	-3378.482528	1119.575753	361.858736	-3372.196396	1120.596311	418.423990	-3446.272532	820.964679	202.285550	-3453.061934	735.257769	208.436358	-3411.604947	714.830540	220.520625	-3505.095803	705.908676	217.654708	-3604.929237	581.988428	236.229489	-3707.914110	420.000773	297.031573	-3770.949741	424.074564	235.370539	-3749.019688	393.059611	260.024698	-3803.562512	337.836355	290.873611	-3990.660684	312.561068	334.924170	-3908.094490	120.468697	338.946398	-3952.658930	130.035978	253.746152	-3907.490104	110.425989	289.112135	-3142.169429	781.080486	531.397512	-3083.123203	765.301099	516.271781	-3053.845660	789.557717	514.511491	-3049.711025	690.343747	499.278012	-2995.052907	594.659347	477.887704	-2963.083098	466.501117	428.216308	-3038.901429	396.683203	464.734909	-2997.531764	387.563117	446.173865	-2996.617567	343.165409	411.021336	-3082.726721	178.038992	399.911564	-3129.699767	135.346691	356.413019	-2910.399865	154.982679	330.359803	-2908.499569	154.805507	373.408187	-2944.171872	118.307579	420.088487	
625	3.120000	-2824.317333	1697.235164	473.330017	-2969.837128	1748.280811	369.272337	-2967.790008	1725.073328	511.298842	-3090.695962	1583.076666	419.157709	-3267.334783	1276.619468	377.106531	-2991.332746	1451.386723	430.911819	-2972.755097	1579.507391	300.909365	-2985.668790	1402.187493	157.066483	-2960.251728	1365.371941	179.164867	-2993.366117	1335.135953	137.218677	-2985.804627	1249.385685	131.816812	-3069.532391	1232.694680	171.384643	-2892.474399	1263.311542	389.868287	-2853.009898	1200.802732	363.622245	-2829.624512	1273.955760	447.463739	-3043.066863	1509.693515	600.615293	-3277.961719	1485.646012	627.387304	-3287.365502	1437.224865	638.380682	-3338.938112	1452.339444	628.902190	-3401.527160	1416.594054	632.823006	-3403.571389	1386.215975	552.551175	-3327.530983	1150.138681	701.005446	-3402.842274	1144.034669	719.942255	-3328.143912	1063.848272	736.531497	-3193.709787	1009.705518	261.168198	-3170.509599	1029.292820	487.465721	-3325.627771	1151.152623	391.828503	-3352.973007	1121.293851	359.348434	-3346.648303	1121.923567	416.138154	-3420.354396	822.663724	200.454497	-3427.592760	737.113186	207.555826	-3386.418829	716.377992	220.035688	-3479.862782	708.100076	216.570628	-3580.971175	585.313951	235.690039	-3688.069138	425.954022	296.866965	-3750.945618	431.479437	235.060037	-3729.604102	399.648753	260.055550	-3785.669803	346.163552	290.936121	-3971.937595	327.814052	335.163890	-3898.741887	130.454369	338.241183	-3942.891199	143.274556	253.262439	-3898.683086	121.014688	288.162309	-3119.607358	778.732207	529.797773	-3060.059695	762.361466	515.711168	-3031.079594	786.087763	513.556213	-3027.923964	687.039171	498.022307	-2971.919196	591.882740	477.378298	-2934.016531	465.429385	428.111008	-3006.752905	391.344775	463.305011	-2964.355724	384.696126	445.465468	-2960.720882	340.540451	410.284853	-3037.531953	171.200057	397.532926	-3081.175178	125.268552	353.991776	-2863.365727	159.203897	328.868267	-2861.623393	158.459211	371.806165	-2894.770241	119.290138	418.341602	
626	3.125000	-2799.887610	1698.060842	474.113153	-2945.641202	1749.420061	370.472720	-2943.000688	1726.028773	513.027706	-3066.571708	1583.898628	419.550467	-3242.432423	1277.964399	375.519388	-2967.110298	1452.377411	431.447051	-2948.437676	1580.305086	301.297114	-2961.940411	1403.959730	156.332229	-2936.483446	1366.866675	177.851973	-2970.053194	1337.095661	135.885718	-2963.232986	1250.981612	130.026630	-3047.382643	1234.981995	168.908478	-2871.922630	1260.929547	389.251890	-2832.886859	1198.310428	362.544586	-2809.761910	1270.061325	447.915787	-3019.905822	1509.559826	601.135471	-3255.142356	1484.610265	627.312588	-3264.220125	1435.696948	637.235500	-3315.834567	1450.738293	627.570225	-3378.165901	1414.235125	630.525477	-3379.218429	1384.012904	550.277313	-3301.449643	1148.454558	699.517984	-3376.712856	1141.890359	718.360184	-3301.703803	1061.984045	734.964027	-3167.775362	1011.786431	259.754109	-3146.322010	1029.685205	486.151867	-3300.426073	1152.673953	389.920669	-3327.584738	1122.876744	357.059411	-3321.201919	1123.086817	414.219424	-3393.988940	823.690464	198.641301	-3401.408531	738.301188	206.516302	-3360.456990	717.368155	219.367568	-3453.814092	709.395807	215.227339	-3555.836244	587.381243	234.807002	-3667.474848	431.321385	296.830194	-3730.165920	438.266220	234.939295	-3709.531028	405.691735	260.371134	-3767.270760	354.370970	291.547942	-3952.829447	343.139183	336.105196	-3888.569768	141.439897	337.821962	-3931.983993	157.633459	252.865085	-3888.988387	132.825323	287.392369	-3097.435379	775.806450	528.524085	-3037.239724	758.806229	515.570751	-3008.700561	781.949643	512.726884	-3006.649163	683.072503	496.925744	-2949.388067	588.588442	476.745347	-2905.890473	464.078070	428.004868	-2975.600903	386.199088	461.876424	-2932.341298	381.860296	444.781993	-2926.084932	338.014048	409.627243	-2993.726320	165.202040	395.453708	-3034.070446	116.241233	351.739245	-2818.436686	163.823226	327.789970	-2816.863313	162.556577	370.609781	-2847.460911	121.060655	417.158772	
